<mxfile host="app.diagrams.net" agent="Mozilla/5.0 (Windows NT 10.0; Win64; x64) AppleWebKit/537.36 (KHTML, like Gecko) Chrome/127.0.0.0 Safari/537.36" version="24.7.6">
  <diagram name="Page-1" id="m1o5G0eyqGWR-mAyGcAD">
    <mxGraphModel dx="2762" dy="820" grid="1" gridSize="10" guides="1" tooltips="1" connect="1" arrows="1" fold="1" page="1" pageScale="1" pageWidth="1169" pageHeight="827" math="0" shadow="0">
      <root>
        <mxCell id="0" />
        <mxCell id="1" parent="0" />
        <mxCell id="_UXQPpMFnyoWNoIL0Hmv-19" value="INTERACTION" style="swimlane;fontStyle=1;align=center;verticalAlign=top;childLayout=stackLayout;horizontal=1;startSize=26;horizontalStack=0;resizeParent=1;resizeParentMax=0;resizeLast=0;collapsible=1;marginBottom=0;whiteSpace=wrap;html=1;" parent="1" vertex="1">
          <mxGeometry x="310" y="204" width="360" height="210" as="geometry" />
        </mxCell>
        <mxCell id="_UXQPpMFnyoWNoIL0Hmv-20" value="&lt;div&gt;&lt;div style=&quot;color: rgb(171, 178, 191); background-color: rgb(40, 44, 52); font-family: Consolas, &amp;quot;Courier New&amp;quot;, monospace; font-size: 14px; line-height: 19px; white-space: pre;&quot;&gt;&lt;div&gt;id &amp;nbsp; &amp;nbsp; &amp;nbsp; &amp;nbsp; &amp;nbsp;  | PK &amp;nbsp; &amp;nbsp; &amp;nbsp; &amp;nbsp; &amp;nbsp; &amp;nbsp; &amp;nbsp; &amp;nbsp;| - &amp;nbsp; &amp;nbsp; &amp;nbsp; &amp;nbsp;|&lt;/div&gt;&lt;div&gt;| prospect_id | FK &amp;nbsp; &amp;nbsp; &amp;nbsp; &amp;nbsp; &amp;nbsp; &amp;nbsp; &amp;nbsp; &amp;nbsp;| Prospect |&lt;/div&gt;&lt;div&gt;| type &amp;nbsp; &amp;nbsp; &amp;nbsp; &amp;nbsp;| string(50) &amp;nbsp; &amp;nbsp; &amp;nbsp; &amp;nbsp;| - &amp;nbsp; &amp;nbsp; &amp;nbsp; &amp;nbsp;|&lt;/div&gt;&lt;div&gt;| date &amp;nbsp; &amp;nbsp; &amp;nbsp; &amp;nbsp;| datetime &amp;nbsp; &amp;nbsp; &amp;nbsp; &amp;nbsp; &amp;nbsp;| - &amp;nbsp; &amp;nbsp; &amp;nbsp; &amp;nbsp;|&lt;/div&gt;&lt;div&gt;| commentaires| text &amp;nbsp; &amp;nbsp; &amp;nbsp; &amp;nbsp; &amp;nbsp; &amp;nbsp; &amp;nbsp;| - &amp;nbsp; &amp;nbsp; &amp;nbsp; &amp;nbsp;|&lt;/div&gt;&lt;div&gt;| created &amp;nbsp; &amp;nbsp; | datetime &amp;nbsp; &amp;nbsp; &amp;nbsp; &amp;nbsp; &amp;nbsp;| - &amp;nbsp; &amp;nbsp; &amp;nbsp; &amp;nbsp;|&lt;/div&gt;&lt;div&gt;| updated &amp;nbsp; &amp;nbsp; | datetime &amp;nbsp; &amp;nbsp; &amp;nbsp; &amp;nbsp; &amp;nbsp;| - &amp;nbsp; &amp;nbsp; &amp;nbsp; &amp;nbsp;|&lt;/div&gt;&lt;br&gt;&lt;/div&gt;&lt;/div&gt;" style="text;strokeColor=none;fillColor=none;align=left;verticalAlign=top;spacingLeft=4;spacingRight=4;overflow=hidden;rotatable=0;points=[[0,0.5],[1,0.5]];portConstraint=eastwest;whiteSpace=wrap;html=1;" parent="_UXQPpMFnyoWNoIL0Hmv-19" vertex="1">
          <mxGeometry y="26" width="360" height="184" as="geometry" />
        </mxCell>
        <mxCell id="_UXQPpMFnyoWNoIL0Hmv-23" value="Text" style="text;html=1;align=center;verticalAlign=middle;resizable=0;points=[];autosize=1;strokeColor=none;fillColor=none;" parent="1" vertex="1">
          <mxGeometry x="356" y="54" width="50" height="30" as="geometry" />
        </mxCell>
        <mxCell id="_UXQPpMFnyoWNoIL0Hmv-25" value="TRANSACTION" style="swimlane;fontStyle=1;align=center;verticalAlign=top;childLayout=stackLayout;horizontal=1;startSize=26;horizontalStack=0;resizeParent=1;resizeParentMax=0;resizeLast=0;collapsible=1;marginBottom=0;whiteSpace=wrap;html=1;" parent="1" vertex="1">
          <mxGeometry x="830" y="204" width="360" height="180" as="geometry" />
        </mxCell>
        <mxCell id="_UXQPpMFnyoWNoIL0Hmv-26" value="&lt;div&gt;&lt;div style=&quot;color: rgb(171, 178, 191); background-color: rgb(40, 44, 52); font-family: Consolas, &amp;quot;Courier New&amp;quot;, monospace; font-size: 14px; line-height: 19px; white-space: pre;&quot;&gt;&lt;div&gt;&amp;nbsp;id &amp;nbsp; &amp;nbsp; &amp;nbsp; &amp;nbsp; &amp;nbsp; | PK &amp;nbsp; &amp;nbsp; &amp;nbsp; &amp;nbsp; &amp;nbsp; &amp;nbsp; &amp;nbsp; &amp;nbsp;| - &amp;nbsp; &amp;nbsp; &amp;nbsp; &amp;nbsp;|&lt;/div&gt;&lt;div&gt;| client_id &amp;nbsp; | FK &amp;nbsp; &amp;nbsp; &amp;nbsp; &amp;nbsp; &amp;nbsp; &amp;nbsp; &amp;nbsp; &amp;nbsp;| Client &amp;nbsp; |&lt;/div&gt;&lt;div&gt;| montant &amp;nbsp; &amp;nbsp; | decimal(10,2) &amp;nbsp; &amp;nbsp; | - &amp;nbsp; &amp;nbsp; &amp;nbsp; &amp;nbsp;|&lt;/div&gt;&lt;div&gt;| date &amp;nbsp; &amp;nbsp; &amp;nbsp; &amp;nbsp;| datetime &amp;nbsp; &amp;nbsp; &amp;nbsp; &amp;nbsp; &amp;nbsp;| - &amp;nbsp; &amp;nbsp; &amp;nbsp; &amp;nbsp;|&lt;/div&gt;&lt;div&gt;| statut &amp;nbsp; &amp;nbsp; &amp;nbsp;| string(50) &amp;nbsp; &amp;nbsp; &amp;nbsp; &amp;nbsp;| - &amp;nbsp; &amp;nbsp; &amp;nbsp; &amp;nbsp;|&lt;/div&gt;&lt;div&gt;| created &amp;nbsp; &amp;nbsp; | datetime &amp;nbsp; &amp;nbsp; &amp;nbsp; &amp;nbsp; &amp;nbsp;| - &amp;nbsp; &amp;nbsp; &amp;nbsp; &amp;nbsp;|&lt;/div&gt;&lt;div&gt;| updated &amp;nbsp; &amp;nbsp; | datetime &amp;nbsp; &amp;nbsp; &amp;nbsp; &amp;nbsp; &amp;nbsp;&lt;/div&gt;&lt;/div&gt;&lt;/div&gt;" style="text;strokeColor=none;fillColor=none;align=left;verticalAlign=top;spacingLeft=4;spacingRight=4;overflow=hidden;rotatable=0;points=[[0,0.5],[1,0.5]];portConstraint=eastwest;whiteSpace=wrap;html=1;" parent="_UXQPpMFnyoWNoIL0Hmv-25" vertex="1">
          <mxGeometry y="26" width="360" height="154" as="geometry" />
        </mxCell>
        <mxCell id="_UXQPpMFnyoWNoIL0Hmv-32" value="PROSPECT" style="swimlane;fontStyle=1;align=center;verticalAlign=top;childLayout=stackLayout;horizontal=1;startSize=26;horizontalStack=0;resizeParent=1;resizeParentMax=0;resizeLast=0;collapsible=1;marginBottom=0;whiteSpace=wrap;html=1;" parent="1" vertex="1">
          <mxGeometry x="40" y="204" width="201" height="270" as="geometry" />
        </mxCell>
        <mxCell id="_UXQPpMFnyoWNoIL0Hmv-33" value="&lt;div&gt;&lt;div style=&quot;color: rgb(171, 178, 191); background-color: rgb(40, 44, 52); font-family: Consolas, &amp;quot;Courier New&amp;quot;, monospace; font-size: 14px; line-height: 19px; white-space: pre;&quot;&gt;&lt;div&gt;| id &amp;nbsp; &amp;nbsp; &amp;nbsp; &amp;nbsp;| PK &amp;nbsp; &amp;nbsp; &amp;nbsp; &amp;nbsp; &amp;nbsp; &amp;nbsp; &amp;nbsp; &amp;nbsp;| - &amp;nbsp; &amp;nbsp; &amp;nbsp; &amp;nbsp;|&lt;/div&gt;&lt;div&gt;| nom &amp;nbsp; &amp;nbsp; &amp;nbsp; | string(50) &amp;nbsp; &amp;nbsp; &amp;nbsp; &amp;nbsp;| - &amp;nbsp; &amp;nbsp; &amp;nbsp; &amp;nbsp;|&lt;/div&gt;&lt;div&gt;| prenom &amp;nbsp; &amp;nbsp;| string(50) &amp;nbsp; &amp;nbsp; &amp;nbsp; &amp;nbsp;| - &amp;nbsp; &amp;nbsp; &amp;nbsp; &amp;nbsp;|&lt;/div&gt;&lt;div&gt;| email &amp;nbsp; &amp;nbsp; | string(80) &amp;nbsp; &amp;nbsp; &amp;nbsp; &amp;nbsp;| - &amp;nbsp; &amp;nbsp; &amp;nbsp; &amp;nbsp;|&lt;/div&gt;&lt;div&gt;| telephone | string(20) &amp;nbsp; &amp;nbsp; &amp;nbsp; &amp;nbsp;| - &amp;nbsp; &amp;nbsp; &amp;nbsp; &amp;nbsp;|&lt;/div&gt;&lt;div&gt;| adresse &amp;nbsp; | string(255) &amp;nbsp; &amp;nbsp; &amp;nbsp; | - &amp;nbsp; &amp;nbsp; &amp;nbsp; &amp;nbsp;|&lt;/div&gt;&lt;div&gt;| ville &amp;nbsp; &amp;nbsp; | string(50) &amp;nbsp; &amp;nbsp; &amp;nbsp; &amp;nbsp;| - &amp;nbsp; &amp;nbsp; &amp;nbsp; &amp;nbsp;|&lt;/div&gt;&lt;div&gt;| cp &amp;nbsp; &amp;nbsp; &amp;nbsp; &amp;nbsp;| string(10) &amp;nbsp; &amp;nbsp; &amp;nbsp; &amp;nbsp;| - &amp;nbsp; &amp;nbsp; &amp;nbsp; &amp;nbsp;|&lt;/div&gt;&lt;div&gt;| pays &amp;nbsp; &amp;nbsp; &amp;nbsp;| string(50) &amp;nbsp; &amp;nbsp; &amp;nbsp; &amp;nbsp;| - &amp;nbsp; &amp;nbsp; &amp;nbsp; &amp;nbsp;|&lt;/div&gt;&lt;div&gt;| statut &amp;nbsp; &amp;nbsp;| boolean &amp;nbsp; &amp;nbsp; &amp;nbsp; &amp;nbsp; &amp;nbsp; | - &amp;nbsp; &amp;nbsp; &amp;nbsp; &amp;nbsp;|&lt;/div&gt;&lt;div&gt;| created &amp;nbsp; | datetime &amp;nbsp; &amp;nbsp; &amp;nbsp; &amp;nbsp; &amp;nbsp;| - &amp;nbsp; &amp;nbsp; &amp;nbsp; &amp;nbsp;|&lt;/div&gt;&lt;div&gt;| updated &amp;nbsp; | datetime &amp;nbsp; &amp;nbsp; &amp;nbsp; &amp;nbsp; &amp;nbsp;| - &amp;nbsp; &amp;nbsp; &amp;nbsp; &amp;nbsp;|&lt;/div&gt;&lt;/div&gt;&lt;/div&gt;" style="text;strokeColor=none;fillColor=none;align=left;verticalAlign=top;spacingLeft=4;spacingRight=4;overflow=hidden;rotatable=0;points=[[0,0.5],[1,0.5]];portConstraint=eastwest;whiteSpace=wrap;html=1;" parent="_UXQPpMFnyoWNoIL0Hmv-32" vertex="1">
          <mxGeometry y="26" width="201" height="244" as="geometry" />
        </mxCell>
        <mxCell id="_UXQPpMFnyoWNoIL0Hmv-141" style="edgeStyle=orthogonalEdgeStyle;rounded=0;orthogonalLoop=1;jettySize=auto;html=1;" parent="1" source="_UXQPpMFnyoWNoIL0Hmv-37" edge="1">
          <mxGeometry relative="1" as="geometry">
            <mxPoint x="490" y="414" as="targetPoint" />
          </mxGeometry>
        </mxCell>
        <mxCell id="_UXQPpMFnyoWNoIL0Hmv-37" value="OFFRE" style="swimlane;fontStyle=1;align=center;verticalAlign=top;childLayout=stackLayout;horizontal=1;startSize=26;horizontalStack=0;resizeParent=1;resizeParentMax=0;resizeLast=0;collapsible=1;marginBottom=0;whiteSpace=wrap;html=1;" parent="1" vertex="1">
          <mxGeometry x="310" y="554" width="360" height="230" as="geometry" />
        </mxCell>
        <mxCell id="_UXQPpMFnyoWNoIL0Hmv-38" value="&lt;div&gt;&lt;div style=&quot;color: rgb(171, 178, 191); background-color: rgb(40, 44, 52); font-family: Consolas, &amp;quot;Courier New&amp;quot;, monospace; font-size: 14px; line-height: 19px; white-space: pre;&quot;&gt;&lt;div&gt;| id &amp;nbsp; &amp;nbsp; &amp;nbsp; &amp;nbsp; &amp;nbsp;| PK &amp;nbsp; &amp;nbsp; &amp;nbsp; &amp;nbsp; &amp;nbsp; &amp;nbsp; &amp;nbsp; &amp;nbsp;| - &amp;nbsp; &amp;nbsp; &amp;nbsp; &amp;nbsp;|&lt;/div&gt;&lt;div&gt;| client_id &amp;nbsp; | FK &amp;nbsp; &amp;nbsp; &amp;nbsp; &amp;nbsp; &amp;nbsp; &amp;nbsp; &amp;nbsp; &amp;nbsp;| Client &amp;nbsp; |&lt;/div&gt;&lt;div&gt;| titre &amp;nbsp; &amp;nbsp; &amp;nbsp; | string(50) &amp;nbsp; &amp;nbsp; &amp;nbsp; &amp;nbsp;| - &amp;nbsp; &amp;nbsp; &amp;nbsp; &amp;nbsp;|&lt;/div&gt;&lt;div&gt;| description | text &amp;nbsp; &amp;nbsp; &amp;nbsp; &amp;nbsp; &amp;nbsp; &amp;nbsp; &amp;nbsp;| - &amp;nbsp; &amp;nbsp; &amp;nbsp; &amp;nbsp;|&lt;/div&gt;&lt;div&gt;| montant &amp;nbsp; &amp;nbsp; | decimal(10,2) &amp;nbsp; &amp;nbsp; | - &amp;nbsp; &amp;nbsp; &amp;nbsp; &amp;nbsp;|&lt;/div&gt;&lt;div&gt;| fichier &amp;nbsp; &amp;nbsp; | string(255) &amp;nbsp; &amp;nbsp; &amp;nbsp; | - &amp;nbsp; &amp;nbsp; &amp;nbsp; &amp;nbsp;|&lt;/div&gt;&lt;div&gt;| created &amp;nbsp; &amp;nbsp; | datetime &amp;nbsp; &amp;nbsp; &amp;nbsp; &amp;nbsp; &amp;nbsp;| - &amp;nbsp; &amp;nbsp; &amp;nbsp; &amp;nbsp;|&lt;/div&gt;&lt;div&gt;| updated &amp;nbsp; &amp;nbsp; | datetime &amp;nbsp; &amp;nbsp; &amp;nbsp; &amp;nbsp; &amp;nbsp;| - &amp;nbsp; &amp;nbsp; &amp;nbsp; &amp;nbsp;|&lt;/div&gt;&lt;/div&gt;&lt;/div&gt;" style="text;strokeColor=none;fillColor=none;align=left;verticalAlign=top;spacingLeft=4;spacingRight=4;overflow=hidden;rotatable=0;points=[[0,0.5],[1,0.5]];portConstraint=eastwest;whiteSpace=wrap;html=1;" parent="_UXQPpMFnyoWNoIL0Hmv-37" vertex="1">
          <mxGeometry y="26" width="360" height="204" as="geometry" />
        </mxCell>
        <mxCell id="_UXQPpMFnyoWNoIL0Hmv-45" value="Payment" style="swimlane;fontStyle=1;align=center;verticalAlign=top;childLayout=stackLayout;horizontal=1;startSize=26;horizontalStack=0;resizeParent=1;resizeParentMax=0;resizeLast=0;collapsible=1;marginBottom=0;whiteSpace=wrap;html=1;" parent="1" vertex="1">
          <mxGeometry x="1270" y="126" width="200" height="320" as="geometry" />
        </mxCell>
        <mxCell id="_UXQPpMFnyoWNoIL0Hmv-46" value="&lt;div&gt;- id : int&lt;/div&gt;&lt;div&gt;&lt;br&gt;&lt;/div&gt;&lt;div&gt;-token : varchar(255)&lt;/div&gt;&lt;div&gt;&lt;br&gt;&lt;/div&gt;&lt;div&gt;-cart : Cart&lt;/div&gt;&lt;div&gt;&lt;br&gt;&lt;/div&gt;&lt;div&gt;- amount :decimal (7.2)&lt;br&gt;&lt;/div&gt;&lt;div&gt;&lt;br&gt;&lt;/div&gt;&lt;div&gt;&lt;span style=&quot;background-color: initial;&quot;&gt;- created_at : datetime&lt;/span&gt;&lt;br&gt;&lt;/div&gt;&lt;div&gt;&lt;span style=&quot;background-color: initial;&quot;&gt;&lt;br&gt;&lt;/span&gt;&lt;/div&gt;&lt;div&gt;&lt;span style=&quot;background-color: initial;&quot;&gt;-status- boolean&lt;/span&gt;&lt;/div&gt;&lt;div&gt;&lt;span style=&quot;background-color: initial;&quot;&gt;&lt;br&gt;&lt;/span&gt;&lt;/div&gt;&lt;div&gt;&lt;span style=&quot;background-color: initial;&quot;&gt;&lt;br&gt;&lt;/span&gt;&lt;/div&gt;&lt;div&gt;&lt;span style=&quot;background-color: initial;&quot;&gt;&lt;br&gt;&lt;/span&gt;&lt;/div&gt;&lt;div&gt;&lt;br&gt;&lt;/div&gt;&lt;div&gt;&lt;br&gt;&lt;/div&gt;&lt;div&gt;&lt;div&gt;&lt;br&gt;&lt;/div&gt;&lt;div&gt;&lt;br&gt;&lt;/div&gt;&lt;div&gt;&lt;br&gt;&lt;/div&gt;&lt;/div&gt;" style="text;strokeColor=none;fillColor=none;align=left;verticalAlign=top;spacingLeft=4;spacingRight=4;overflow=hidden;rotatable=0;points=[[0,0.5],[1,0.5]];portConstraint=eastwest;whiteSpace=wrap;html=1;" parent="_UXQPpMFnyoWNoIL0Hmv-45" vertex="1">
          <mxGeometry y="26" width="200" height="294" as="geometry" />
        </mxCell>
        <mxCell id="_UXQPpMFnyoWNoIL0Hmv-52" value="Receipt" style="swimlane;fontStyle=1;align=center;verticalAlign=top;childLayout=stackLayout;horizontal=1;startSize=30;horizontalStack=0;resizeParent=1;resizeParentMax=0;resizeLast=0;collapsible=1;marginBottom=0;whiteSpace=wrap;html=1;" parent="1" vertex="1">
          <mxGeometry x="1590" y="44" width="200" height="188" as="geometry" />
        </mxCell>
        <mxCell id="_UXQPpMFnyoWNoIL0Hmv-53" value="&lt;div&gt;- id : int&lt;/div&gt;&lt;div&gt;&lt;br&gt;&lt;/div&gt;&lt;div&gt;-payment : Payement&lt;/div&gt;&lt;div&gt;&lt;br&gt;&lt;/div&gt;&lt;div&gt;&lt;span style=&quot;background-color: initial;&quot;&gt;- created_at : datetime&lt;/span&gt;&lt;br&gt;&lt;/div&gt;&lt;div&gt;&lt;br&gt;&lt;/div&gt;&lt;div&gt;&lt;br&gt;&lt;/div&gt;&lt;div&gt;&lt;div&gt;&lt;br&gt;&lt;/div&gt;&lt;div&gt;&lt;br&gt;&lt;/div&gt;&lt;div&gt;&lt;br&gt;&lt;/div&gt;&lt;/div&gt;" style="text;strokeColor=none;fillColor=none;align=left;verticalAlign=top;spacingLeft=4;spacingRight=4;overflow=hidden;rotatable=0;points=[[0,0.5],[1,0.5]];portConstraint=eastwest;whiteSpace=wrap;html=1;" parent="_UXQPpMFnyoWNoIL0Hmv-52" vertex="1">
          <mxGeometry y="30" width="200" height="90" as="geometry" />
        </mxCell>
        <mxCell id="_UXQPpMFnyoWNoIL0Hmv-54" value="" style="line;strokeWidth=1;fillColor=none;align=left;verticalAlign=middle;spacingTop=-1;spacingLeft=3;spacingRight=3;rotatable=0;labelPosition=right;points=[];portConstraint=eastwest;strokeColor=inherit;" parent="_UXQPpMFnyoWNoIL0Hmv-52" vertex="1">
          <mxGeometry y="120" width="200" height="8" as="geometry" />
        </mxCell>
        <mxCell id="_UXQPpMFnyoWNoIL0Hmv-55" value="+ getId(): int&lt;div&gt;&lt;br&gt;&lt;/div&gt;&lt;div&gt;Ajouter les reste...&lt;/div&gt;" style="text;strokeColor=none;fillColor=none;align=left;verticalAlign=top;spacingLeft=4;spacingRight=4;overflow=hidden;rotatable=0;points=[[0,0.5],[1,0.5]];portConstraint=eastwest;whiteSpace=wrap;html=1;" parent="_UXQPpMFnyoWNoIL0Hmv-52" vertex="1">
          <mxGeometry y="128" width="200" height="60" as="geometry" />
        </mxCell>
        <mxCell id="_UXQPpMFnyoWNoIL0Hmv-56" style="edgeStyle=orthogonalEdgeStyle;rounded=0;orthogonalLoop=1;jettySize=auto;html=1;exitX=1;exitY=0.5;exitDx=0;exitDy=0;" parent="_UXQPpMFnyoWNoIL0Hmv-52" source="_UXQPpMFnyoWNoIL0Hmv-53" target="_UXQPpMFnyoWNoIL0Hmv-53" edge="1">
          <mxGeometry relative="1" as="geometry" />
        </mxCell>
        <mxCell id="_UXQPpMFnyoWNoIL0Hmv-57" value="Payment" style="swimlane;fontStyle=1;align=center;verticalAlign=top;childLayout=stackLayout;horizontal=1;startSize=26;horizontalStack=0;resizeParent=1;resizeParentMax=0;resizeLast=0;collapsible=1;marginBottom=0;whiteSpace=wrap;html=1;" parent="1" vertex="1">
          <mxGeometry x="1590" y="344" width="200" height="180" as="geometry" />
        </mxCell>
        <mxCell id="_UXQPpMFnyoWNoIL0Hmv-58" value="&lt;div&gt;- id : int&lt;/div&gt;&lt;div&gt;&lt;br&gt;&lt;/div&gt;&lt;div&gt;&lt;span style=&quot;background-color: initial;&quot;&gt;- cart&amp;nbsp; : cart&lt;/span&gt;&lt;br&gt;&lt;/div&gt;&lt;div&gt;&lt;span style=&quot;background-color: initial;&quot;&gt;&lt;br&gt;&lt;/span&gt;&lt;/div&gt;&lt;div&gt;&lt;span style=&quot;background-color: initial;&quot;&gt;-payment :Payment&lt;/span&gt;&lt;/div&gt;&lt;div&gt;&lt;br&gt;&lt;/div&gt;&lt;div&gt;&lt;br&gt;&lt;/div&gt;&lt;div&gt;&lt;div&gt;&lt;br&gt;&lt;/div&gt;&lt;div&gt;&lt;br&gt;&lt;/div&gt;&lt;div&gt;&lt;br&gt;&lt;/div&gt;&lt;/div&gt;" style="text;strokeColor=none;fillColor=none;align=left;verticalAlign=top;spacingLeft=4;spacingRight=4;overflow=hidden;rotatable=0;points=[[0,0.5],[1,0.5]];portConstraint=eastwest;whiteSpace=wrap;html=1;" parent="_UXQPpMFnyoWNoIL0Hmv-57" vertex="1">
          <mxGeometry y="26" width="200" height="94" as="geometry" />
        </mxCell>
        <mxCell id="_UXQPpMFnyoWNoIL0Hmv-59" value="" style="line;strokeWidth=1;fillColor=none;align=left;verticalAlign=middle;spacingTop=-1;spacingLeft=3;spacingRight=3;rotatable=0;labelPosition=right;points=[];portConstraint=eastwest;strokeColor=inherit;" parent="_UXQPpMFnyoWNoIL0Hmv-57" vertex="1">
          <mxGeometry y="120" width="200" height="8" as="geometry" />
        </mxCell>
        <mxCell id="_UXQPpMFnyoWNoIL0Hmv-60" value="+ getId(): int&lt;div&gt;&lt;br&gt;&lt;/div&gt;&lt;div&gt;Ajoute le reste....&lt;/div&gt;" style="text;strokeColor=none;fillColor=none;align=left;verticalAlign=top;spacingLeft=4;spacingRight=4;overflow=hidden;rotatable=0;points=[[0,0.5],[1,0.5]];portConstraint=eastwest;whiteSpace=wrap;html=1;" parent="_UXQPpMFnyoWNoIL0Hmv-57" vertex="1">
          <mxGeometry y="128" width="200" height="52" as="geometry" />
        </mxCell>
        <mxCell id="_UXQPpMFnyoWNoIL0Hmv-61" style="edgeStyle=orthogonalEdgeStyle;rounded=0;orthogonalLoop=1;jettySize=auto;html=1;entryX=1.021;entryY=0.723;entryDx=0;entryDy=0;entryPerimeter=0;endArrow=diamond;endFill=1;" parent="1" source="_UXQPpMFnyoWNoIL0Hmv-57" target="_UXQPpMFnyoWNoIL0Hmv-46" edge="1">
          <mxGeometry relative="1" as="geometry" />
        </mxCell>
        <mxCell id="_UXQPpMFnyoWNoIL0Hmv-62" value="1" style="edgeLabel;html=1;align=center;verticalAlign=middle;resizable=0;points=[];" parent="_UXQPpMFnyoWNoIL0Hmv-61" vertex="1" connectable="0">
          <mxGeometry x="-0.8031" y="-1" relative="1" as="geometry">
            <mxPoint as="offset" />
          </mxGeometry>
        </mxCell>
        <mxCell id="_UXQPpMFnyoWNoIL0Hmv-63" value="1" style="edgeLabel;html=1;align=center;verticalAlign=middle;resizable=0;points=[];" parent="_UXQPpMFnyoWNoIL0Hmv-61" vertex="1" connectable="0">
          <mxGeometry x="0.7599" relative="1" as="geometry">
            <mxPoint as="offset" />
          </mxGeometry>
        </mxCell>
        <mxCell id="_UXQPpMFnyoWNoIL0Hmv-65" value="PROSPECT" style="swimlane;fontStyle=0;childLayout=stackLayout;horizontal=1;startSize=30;horizontalStack=0;resizeParent=1;resizeParentMax=0;resizeLast=0;collapsible=1;marginBottom=0;whiteSpace=wrap;html=1;" parent="1" vertex="1">
          <mxGeometry x="123" y="830" width="613" height="941" as="geometry" />
        </mxCell>
        <mxCell id="_UXQPpMFnyoWNoIL0Hmv-66" value="cart" style="ellipse;whiteSpace=wrap;html=1;" parent="1" vertex="1">
          <mxGeometry x="304" y="1046" width="120" height="80" as="geometry" />
        </mxCell>
        <mxCell id="_UXQPpMFnyoWNoIL0Hmv-67" value="Search" style="ellipse;whiteSpace=wrap;html=1;" parent="1" vertex="1">
          <mxGeometry x="311" y="933" width="120" height="80" as="geometry" />
        </mxCell>
        <mxCell id="_UXQPpMFnyoWNoIL0Hmv-68" value="Add to cart" style="ellipse;whiteSpace=wrap;html=1;" parent="1" vertex="1">
          <mxGeometry x="141" y="1193" width="120" height="80" as="geometry" />
        </mxCell>
        <mxCell id="_UXQPpMFnyoWNoIL0Hmv-69" value="remove fromt cart" style="ellipse;whiteSpace=wrap;html=1;" parent="1" vertex="1">
          <mxGeometry x="329" y="1216" width="120" height="80" as="geometry" />
        </mxCell>
        <mxCell id="_UXQPpMFnyoWNoIL0Hmv-70" value="confirm cart" style="ellipse;whiteSpace=wrap;html=1;" parent="1" vertex="1">
          <mxGeometry x="500" y="1190" width="120" height="80" as="geometry" />
        </mxCell>
        <mxCell id="_UXQPpMFnyoWNoIL0Hmv-71" value="Order informatio," style="ellipse;whiteSpace=wrap;html=1;" parent="1" vertex="1">
          <mxGeometry x="280" y="1605" width="120" height="80" as="geometry" />
        </mxCell>
        <mxCell id="_UXQPpMFnyoWNoIL0Hmv-72" value="Payement" style="ellipse;whiteSpace=wrap;html=1;" parent="1" vertex="1">
          <mxGeometry x="349" y="1450" width="120" height="80" as="geometry" />
        </mxCell>
        <mxCell id="_UXQPpMFnyoWNoIL0Hmv-73" value="prospect" style="shape=umlActor;verticalLabelPosition=bottom;verticalAlign=top;html=1;outlineConnect=0;" parent="1" vertex="1">
          <mxGeometry x="-61" y="1322" width="30" height="60" as="geometry" />
        </mxCell>
        <mxCell id="_UXQPpMFnyoWNoIL0Hmv-74" value="membre de l&#39;agence" style="shape=umlActor;verticalLabelPosition=bottom;verticalAlign=top;html=1;outlineConnect=0;" parent="1" vertex="1">
          <mxGeometry x="793" y="985" width="30" height="57" as="geometry" />
        </mxCell>
        <mxCell id="_UXQPpMFnyoWNoIL0Hmv-77" value="" style="endArrow=none;html=1;rounded=0;entryX=0;entryY=0.5;entryDx=0;entryDy=0;" parent="1" target="_UXQPpMFnyoWNoIL0Hmv-67" edge="1">
          <mxGeometry width="50" height="50" relative="1" as="geometry">
            <mxPoint x="-17" y="1362" as="sourcePoint" />
            <mxPoint x="33" y="1312" as="targetPoint" />
          </mxGeometry>
        </mxCell>
        <mxCell id="_UXQPpMFnyoWNoIL0Hmv-78" value="" style="endArrow=none;html=1;rounded=0;entryX=0.328;entryY=1.013;entryDx=0;entryDy=0;entryPerimeter=0;" parent="1" target="_UXQPpMFnyoWNoIL0Hmv-68" edge="1">
          <mxGeometry width="50" height="50" relative="1" as="geometry">
            <mxPoint x="-17" y="1372" as="sourcePoint" />
            <mxPoint x="33" y="1322" as="targetPoint" />
          </mxGeometry>
        </mxCell>
        <mxCell id="_UXQPpMFnyoWNoIL0Hmv-79" value="" style="endArrow=none;html=1;rounded=0;exitX=0.75;exitY=-0.267;exitDx=0;exitDy=0;exitPerimeter=0;entryX=0.033;entryY=0.4;entryDx=0;entryDy=0;entryPerimeter=0;" parent="1" target="_UXQPpMFnyoWNoIL0Hmv-72" edge="1">
          <mxGeometry width="50" height="50" relative="1" as="geometry">
            <mxPoint x="-17" y="1381.9899999999998" as="sourcePoint" />
            <mxPoint x="313" y="1402" as="targetPoint" />
          </mxGeometry>
        </mxCell>
        <mxCell id="_UXQPpMFnyoWNoIL0Hmv-80" value="" style="endArrow=classic;html=1;rounded=0;" parent="1" target="_UXQPpMFnyoWNoIL0Hmv-72" edge="1">
          <mxGeometry width="50" height="50" relative="1" as="geometry">
            <mxPoint x="343" y="1602" as="sourcePoint" />
            <mxPoint x="313" y="1402" as="targetPoint" />
            <Array as="points">
              <mxPoint x="343" y="1602" />
            </Array>
          </mxGeometry>
        </mxCell>
        <mxCell id="_UXQPpMFnyoWNoIL0Hmv-81" value="" style="endArrow=none;html=1;rounded=0;entryX=0.149;entryY=0.987;entryDx=0;entryDy=0;entryPerimeter=0;" parent="1" edge="1">
          <mxGeometry width="50" height="50" relative="1" as="geometry">
            <mxPoint x="473" y="1492.7998046875" as="sourcePoint" />
            <mxPoint x="778.4300000000003" y="1079.61" as="targetPoint" />
          </mxGeometry>
        </mxCell>
        <mxCell id="_UXQPpMFnyoWNoIL0Hmv-82" value="" style="endArrow=none;html=1;rounded=0;exitX=1;exitY=0.5;exitDx=0;exitDy=0;" parent="1" source="_UXQPpMFnyoWNoIL0Hmv-66" edge="1">
          <mxGeometry width="50" height="50" relative="1" as="geometry">
            <mxPoint x="713" y="1162" as="sourcePoint" />
            <mxPoint x="783" y="1022" as="targetPoint" />
          </mxGeometry>
        </mxCell>
        <mxCell id="_UXQPpMFnyoWNoIL0Hmv-83" value="administrateur" style="shape=umlActor;verticalLabelPosition=bottom;verticalAlign=top;html=1;outlineConnect=0;" parent="1" vertex="1">
          <mxGeometry x="783" y="1412" width="30" height="60" as="geometry" />
        </mxCell>
        <mxCell id="_UXQPpMFnyoWNoIL0Hmv-85" value="" style="endArrow=none;html=1;rounded=0;exitX=0.952;exitY=0.71;exitDx=0;exitDy=0;exitPerimeter=0;" parent="1" source="_UXQPpMFnyoWNoIL0Hmv-72" edge="1">
          <mxGeometry width="50" height="50" relative="1" as="geometry">
            <mxPoint x="543" y="1402" as="sourcePoint" />
            <mxPoint x="758" y="1487.3138039786509" as="targetPoint" />
          </mxGeometry>
        </mxCell>
        <mxCell id="_UXQPpMFnyoWNoIL0Hmv-86" value="" style="endArrow=block;dashed=1;html=1;rounded=0;exitX=0.442;exitY=-0.015;exitDx=0;exitDy=0;exitPerimeter=0;entryX=0.623;entryY=0.98;entryDx=0;entryDy=0;entryPerimeter=0;endFill=1;" parent="1" source="_UXQPpMFnyoWNoIL0Hmv-69" target="_UXQPpMFnyoWNoIL0Hmv-66" edge="1">
          <mxGeometry width="50" height="50" relative="1" as="geometry">
            <mxPoint x="393" y="1212" as="sourcePoint" />
            <mxPoint x="364" y="1132" as="targetPoint" />
            <Array as="points" />
          </mxGeometry>
        </mxCell>
        <mxCell id="_UXQPpMFnyoWNoIL0Hmv-87" value="&amp;lt;&amp;lt;&amp;gt;&amp;gt;" style="edgeLabel;html=1;align=center;verticalAlign=middle;resizable=0;points=[];" parent="_UXQPpMFnyoWNoIL0Hmv-86" vertex="1" connectable="0">
          <mxGeometry x="0.1881" y="-1" relative="1" as="geometry">
            <mxPoint as="offset" />
          </mxGeometry>
        </mxCell>
        <mxCell id="_UXQPpMFnyoWNoIL0Hmv-88" value="&amp;lt;&amp;lt; includes &amp;gt;&amp;gt;" style="edgeLabel;html=1;align=center;verticalAlign=middle;resizable=0;points=[];" parent="_UXQPpMFnyoWNoIL0Hmv-86" vertex="1" connectable="0">
          <mxGeometry x="0.1367" y="-1" relative="1" as="geometry">
            <mxPoint as="offset" />
          </mxGeometry>
        </mxCell>
        <mxCell id="_UXQPpMFnyoWNoIL0Hmv-89" value="" style="endArrow=none;html=1;rounded=0;exitX=1;exitY=0.5;exitDx=0;exitDy=0;" parent="1" source="_UXQPpMFnyoWNoIL0Hmv-67" edge="1">
          <mxGeometry width="50" height="50" relative="1" as="geometry">
            <mxPoint x="543" y="1122" as="sourcePoint" />
            <mxPoint x="783" y="1002" as="targetPoint" />
          </mxGeometry>
        </mxCell>
        <mxCell id="_UXQPpMFnyoWNoIL0Hmv-90" value="&amp;nbsp;ROLE_USER&amp;nbsp; &amp;nbsp; (membre de l&#39;agence)" style="swimlane;fontStyle=0;childLayout=stackLayout;horizontal=1;startSize=30;horizontalStack=0;resizeParent=1;resizeParentMax=0;resizeLast=0;collapsible=1;marginBottom=0;whiteSpace=wrap;html=1;" parent="1" vertex="1">
          <mxGeometry x="1173" y="842" width="980" height="920" as="geometry" />
        </mxCell>
        <mxCell id="_UXQPpMFnyoWNoIL0Hmv-91" value="Log in" style="ellipse;whiteSpace=wrap;html=1;" parent="1" vertex="1">
          <mxGeometry x="1381" y="882" width="120" height="80" as="geometry" />
        </mxCell>
        <mxCell id="_UXQPpMFnyoWNoIL0Hmv-92" value="membre de l&#39;agence" style="shape=umlActor;verticalLabelPosition=bottom;verticalAlign=top;html=1;outlineConnect=0;" parent="1" vertex="1">
          <mxGeometry x="1033" y="1148" width="30" height="60" as="geometry" />
        </mxCell>
        <mxCell id="_UXQPpMFnyoWNoIL0Hmv-93" value="BDD" style="shape=umlActor;verticalLabelPosition=bottom;verticalAlign=top;html=1;outlineConnect=0;" parent="1" vertex="1">
          <mxGeometry x="2253" y="928" width="30" height="57" as="geometry" />
        </mxCell>
        <mxCell id="_UXQPpMFnyoWNoIL0Hmv-95" value="" style="endArrow=none;html=1;rounded=0;" parent="1" target="_UXQPpMFnyoWNoIL0Hmv-91" edge="1">
          <mxGeometry width="50" height="50" relative="1" as="geometry">
            <mxPoint x="1073" y="1162" as="sourcePoint" />
            <mxPoint x="1103" y="1261" as="targetPoint" />
          </mxGeometry>
        </mxCell>
        <mxCell id="_UXQPpMFnyoWNoIL0Hmv-96" value="" style="endArrow=none;html=1;rounded=0;entryX=0.072;entryY=0.232;entryDx=0;entryDy=0;entryPerimeter=0;" parent="1" target="_UXQPpMFnyoWNoIL0Hmv-99" edge="1">
          <mxGeometry width="50" height="50" relative="1" as="geometry">
            <mxPoint x="1073" y="1202" as="sourcePoint" />
            <mxPoint x="1393" y="1321.4221126760563" as="targetPoint" />
          </mxGeometry>
        </mxCell>
        <mxCell id="_UXQPpMFnyoWNoIL0Hmv-97" value="" style="endArrow=none;html=1;rounded=0;exitX=0.933;exitY=0.238;exitDx=0;exitDy=0;exitPerimeter=0;" parent="1" source="_UXQPpMFnyoWNoIL0Hmv-99" edge="1">
          <mxGeometry width="50" height="50" relative="1" as="geometry">
            <mxPoint x="1543" y="1441.7998046875" as="sourcePoint" />
            <mxPoint x="2243" y="962" as="targetPoint" />
          </mxGeometry>
        </mxCell>
        <mxCell id="_UXQPpMFnyoWNoIL0Hmv-98" value="crée un prospect (client)" style="ellipse;whiteSpace=wrap;html=1;" parent="1" vertex="1">
          <mxGeometry x="1512" y="1012" width="161" height="108" as="geometry" />
        </mxCell>
        <mxCell id="_UXQPpMFnyoWNoIL0Hmv-99" value="Product manager" style="ellipse;whiteSpace=wrap;html=1;" parent="1" vertex="1">
          <mxGeometry x="1348" y="1272" width="145" height="88" as="geometry" />
        </mxCell>
        <mxCell id="_UXQPpMFnyoWNoIL0Hmv-100" value="Add product" style="ellipse;whiteSpace=wrap;html=1;" parent="1" vertex="1">
          <mxGeometry x="1176" y="1401" width="120" height="80" as="geometry" />
        </mxCell>
        <mxCell id="_UXQPpMFnyoWNoIL0Hmv-101" value="" style="endArrow=none;html=1;rounded=0;entryX=-0.002;entryY=0.708;entryDx=0;entryDy=0;entryPerimeter=0;" parent="1" target="_UXQPpMFnyoWNoIL0Hmv-98" edge="1">
          <mxGeometry width="50" height="50" relative="1" as="geometry">
            <mxPoint x="1073" y="1182" as="sourcePoint" />
            <mxPoint x="1483" y="1052" as="targetPoint" />
          </mxGeometry>
        </mxCell>
        <mxCell id="_UXQPpMFnyoWNoIL0Hmv-102" value="" style="endArrow=none;html=1;rounded=0;" parent="1" target="_UXQPpMFnyoWNoIL0Hmv-98" edge="1">
          <mxGeometry width="50" height="50" relative="1" as="geometry">
            <mxPoint x="2243" y="942" as="sourcePoint" />
            <mxPoint x="1513" y="1052" as="targetPoint" />
          </mxGeometry>
        </mxCell>
        <mxCell id="_UXQPpMFnyoWNoIL0Hmv-103" value="Remove product" style="ellipse;whiteSpace=wrap;html=1;" parent="1" vertex="1">
          <mxGeometry x="1337" y="1443" width="120" height="80" as="geometry" />
        </mxCell>
        <mxCell id="_UXQPpMFnyoWNoIL0Hmv-104" value="Edit product" style="ellipse;whiteSpace=wrap;html=1;" parent="1" vertex="1">
          <mxGeometry x="1497" y="1400" width="120" height="80" as="geometry" />
        </mxCell>
        <mxCell id="_UXQPpMFnyoWNoIL0Hmv-105" value="" style="endArrow=block;dashed=1;html=1;rounded=0;entryX=0.448;entryY=0.983;entryDx=0;entryDy=0;endFill=1;entryPerimeter=0;" parent="1" target="_UXQPpMFnyoWNoIL0Hmv-99" edge="1">
          <mxGeometry width="50" height="50" relative="1" as="geometry">
            <mxPoint x="1400" y="1443" as="sourcePoint" />
            <mxPoint x="1428" y="1432" as="targetPoint" />
          </mxGeometry>
        </mxCell>
        <mxCell id="_UXQPpMFnyoWNoIL0Hmv-106" value="&amp;lt;&amp;lt; include &amp;gt;&amp;gt;" style="edgeLabel;html=1;align=center;verticalAlign=middle;resizable=0;points=[];" parent="_UXQPpMFnyoWNoIL0Hmv-105" vertex="1" connectable="0">
          <mxGeometry x="-0.0718" relative="1" as="geometry">
            <mxPoint as="offset" />
          </mxGeometry>
        </mxCell>
        <mxCell id="_UXQPpMFnyoWNoIL0Hmv-107" value="" style="endArrow=block;dashed=1;html=1;rounded=0;exitX=0.698;exitY=0.052;exitDx=0;exitDy=0;exitPerimeter=0;endFill=1;" parent="1" source="_UXQPpMFnyoWNoIL0Hmv-100" target="_UXQPpMFnyoWNoIL0Hmv-99" edge="1">
          <mxGeometry width="50" height="50" relative="1" as="geometry">
            <mxPoint x="1378" y="1482" as="sourcePoint" />
            <mxPoint x="1428" y="1432" as="targetPoint" />
          </mxGeometry>
        </mxCell>
        <mxCell id="_UXQPpMFnyoWNoIL0Hmv-108" value="&amp;lt;&amp;lt; include &amp;gt;&amp;gt;" style="edgeLabel;html=1;align=center;verticalAlign=middle;resizable=0;points=[];" parent="_UXQPpMFnyoWNoIL0Hmv-107" vertex="1" connectable="0">
          <mxGeometry x="-0.2907" relative="1" as="geometry">
            <mxPoint as="offset" />
          </mxGeometry>
        </mxCell>
        <mxCell id="_UXQPpMFnyoWNoIL0Hmv-109" value="" style="endArrow=block;dashed=1;html=1;rounded=0;entryX=1;entryY=1;entryDx=0;entryDy=0;exitX=0.323;exitY=0.005;exitDx=0;exitDy=0;exitPerimeter=0;endFill=1;" parent="1" source="_UXQPpMFnyoWNoIL0Hmv-104" target="_UXQPpMFnyoWNoIL0Hmv-99" edge="1">
          <mxGeometry width="50" height="50" relative="1" as="geometry">
            <mxPoint x="1378" y="1482" as="sourcePoint" />
            <mxPoint x="1428" y="1432" as="targetPoint" />
          </mxGeometry>
        </mxCell>
        <mxCell id="_UXQPpMFnyoWNoIL0Hmv-110" value="&amp;lt;&amp;lt; include &amp;gt;&amp;gt;" style="edgeLabel;html=1;align=center;verticalAlign=middle;resizable=0;points=[];" parent="_UXQPpMFnyoWNoIL0Hmv-109" vertex="1" connectable="0">
          <mxGeometry x="-0.1339" y="1" relative="1" as="geometry">
            <mxPoint as="offset" />
          </mxGeometry>
        </mxCell>
        <mxCell id="_UXQPpMFnyoWNoIL0Hmv-111" value="" style="endArrow=block;dashed=1;html=1;rounded=0;entryX=0.828;entryY=0.97;entryDx=0;entryDy=0;entryPerimeter=0;exitX=0.357;exitY=0.005;exitDx=0;exitDy=0;exitPerimeter=0;endFill=1;" parent="1" source="_UXQPpMFnyoWNoIL0Hmv-98" target="_UXQPpMFnyoWNoIL0Hmv-91" edge="1">
          <mxGeometry width="50" height="50" relative="1" as="geometry">
            <mxPoint x="1433" y="1182" as="sourcePoint" />
            <mxPoint x="1483" y="1132" as="targetPoint" />
          </mxGeometry>
        </mxCell>
        <mxCell id="_UXQPpMFnyoWNoIL0Hmv-112" value="&amp;lt;&amp;lt; extends&amp;gt;&amp;gt;" style="edgeLabel;html=1;align=center;verticalAlign=middle;resizable=0;points=[];" parent="_UXQPpMFnyoWNoIL0Hmv-111" vertex="1" connectable="0">
          <mxGeometry x="-0.0827" relative="1" as="geometry">
            <mxPoint x="-1" as="offset" />
          </mxGeometry>
        </mxCell>
        <mxCell id="_UXQPpMFnyoWNoIL0Hmv-113" value="" style="endArrow=block;dashed=1;html=1;rounded=0;endFill=1;exitX=0.563;exitY=0.015;exitDx=0;exitDy=0;exitPerimeter=0;" parent="1" edge="1">
          <mxGeometry width="50" height="50" relative="1" as="geometry">
            <mxPoint x="1430.6350000000002" y="1273.3200000000002" as="sourcePoint" />
            <mxPoint x="1434" y="964" as="targetPoint" />
          </mxGeometry>
        </mxCell>
        <mxCell id="_UXQPpMFnyoWNoIL0Hmv-114" value="&amp;lt;&amp;lt; extends &amp;gt;&amp;gt;" style="edgeLabel;html=1;align=center;verticalAlign=middle;resizable=0;points=[];" parent="_UXQPpMFnyoWNoIL0Hmv-113" vertex="1" connectable="0">
          <mxGeometry x="-0.5032" relative="1" as="geometry">
            <mxPoint as="offset" />
          </mxGeometry>
        </mxCell>
        <mxCell id="_UXQPpMFnyoWNoIL0Hmv-116" value="interaction prospect" style="ellipse;whiteSpace=wrap;html=1;" parent="1" vertex="1">
          <mxGeometry x="1801" y="1232" width="192" height="92" as="geometry" />
        </mxCell>
        <mxCell id="_UXQPpMFnyoWNoIL0Hmv-117" value="Consulter liste des offres" style="ellipse;whiteSpace=wrap;html=1;" parent="1" vertex="1">
          <mxGeometry x="1751" y="1365" width="120" height="80" as="geometry" />
        </mxCell>
        <mxCell id="_UXQPpMFnyoWNoIL0Hmv-118" value="list des details" style="ellipse;whiteSpace=wrap;html=1;" parent="1" vertex="1">
          <mxGeometry x="1958" y="1352" width="120" height="75" as="geometry" />
        </mxCell>
        <mxCell id="_UXQPpMFnyoWNoIL0Hmv-119" value="" style="endArrow=none;html=1;rounded=0;exitX=1;exitY=0;exitDx=0;exitDy=0;" parent="1" source="_UXQPpMFnyoWNoIL0Hmv-116" edge="1">
          <mxGeometry width="50" height="50" relative="1" as="geometry">
            <mxPoint x="1713" y="1262" as="sourcePoint" />
            <mxPoint x="2243" y="982" as="targetPoint" />
          </mxGeometry>
        </mxCell>
        <mxCell id="_UXQPpMFnyoWNoIL0Hmv-120" value="attibuer une offre au client" style="ellipse;whiteSpace=wrap;html=1;" parent="1" vertex="1">
          <mxGeometry x="1904" y="1494" width="120" height="80" as="geometry" />
        </mxCell>
        <mxCell id="_UXQPpMFnyoWNoIL0Hmv-121" value="Update interaction" style="ellipse;whiteSpace=wrap;html=1;" parent="1" vertex="1">
          <mxGeometry x="2029" y="1448" width="120" height="80" as="geometry" />
        </mxCell>
        <mxCell id="_UXQPpMFnyoWNoIL0Hmv-124" value="" style="endArrow=none;html=1;rounded=0;" parent="1" target="_UXQPpMFnyoWNoIL0Hmv-116" edge="1">
          <mxGeometry width="50" height="50" relative="1" as="geometry">
            <mxPoint x="1073" y="1192" as="sourcePoint" />
            <mxPoint x="1303" y="1102" as="targetPoint" />
          </mxGeometry>
        </mxCell>
        <mxCell id="_UXQPpMFnyoWNoIL0Hmv-125" value="" style="endArrow=block;dashed=1;html=1;rounded=0;endFill=1;" parent="1" target="_UXQPpMFnyoWNoIL0Hmv-118" edge="1">
          <mxGeometry width="50" height="50" relative="1" as="geometry">
            <mxPoint x="1953" y="1492" as="sourcePoint" />
            <mxPoint x="1973" y="1302" as="targetPoint" />
          </mxGeometry>
        </mxCell>
        <mxCell id="_UXQPpMFnyoWNoIL0Hmv-126" value="&amp;lt;&amp;lt; include &amp;gt;&amp;gt;" style="edgeLabel;html=1;align=center;verticalAlign=middle;resizable=0;points=[];" parent="_UXQPpMFnyoWNoIL0Hmv-125" vertex="1" connectable="0">
          <mxGeometry x="-0.1336" relative="1" as="geometry">
            <mxPoint as="offset" />
          </mxGeometry>
        </mxCell>
        <mxCell id="_UXQPpMFnyoWNoIL0Hmv-127" value="" style="endArrow=block;dashed=1;html=1;rounded=0;exitX=0.372;exitY=-0.035;exitDx=0;exitDy=0;exitPerimeter=0;entryX=1;entryY=1;entryDx=0;entryDy=0;endFill=1;" parent="1" source="_UXQPpMFnyoWNoIL0Hmv-121" target="_UXQPpMFnyoWNoIL0Hmv-118" edge="1">
          <mxGeometry width="50" height="50" relative="1" as="geometry">
            <mxPoint x="1923" y="1352" as="sourcePoint" />
            <mxPoint x="1973" y="1302" as="targetPoint" />
          </mxGeometry>
        </mxCell>
        <mxCell id="_UXQPpMFnyoWNoIL0Hmv-128" value="&amp;lt;&amp;lt; include &amp;gt;&amp;gt;" style="edgeLabel;html=1;align=center;verticalAlign=middle;resizable=0;points=[];" parent="_UXQPpMFnyoWNoIL0Hmv-127" vertex="1" connectable="0">
          <mxGeometry x="-0.2568" y="-2" relative="1" as="geometry">
            <mxPoint as="offset" />
          </mxGeometry>
        </mxCell>
        <mxCell id="_UXQPpMFnyoWNoIL0Hmv-129" value="" style="endArrow=block;dashed=1;html=1;rounded=0;exitX=0.702;exitY=0.063;exitDx=0;exitDy=0;exitPerimeter=0;entryX=0.374;entryY=1.057;entryDx=0;entryDy=0;entryPerimeter=0;endFill=1;" parent="1" source="_UXQPpMFnyoWNoIL0Hmv-117" target="_UXQPpMFnyoWNoIL0Hmv-116" edge="1">
          <mxGeometry width="50" height="50" relative="1" as="geometry">
            <mxPoint x="1923" y="1352" as="sourcePoint" />
            <mxPoint x="1973" y="1302" as="targetPoint" />
          </mxGeometry>
        </mxCell>
        <mxCell id="_UXQPpMFnyoWNoIL0Hmv-130" value="&amp;lt;&amp;lt; include &amp;gt;&amp;gt;" style="edgeLabel;html=1;align=center;verticalAlign=middle;resizable=0;points=[];" parent="_UXQPpMFnyoWNoIL0Hmv-129" vertex="1" connectable="0">
          <mxGeometry x="-0.0916" relative="1" as="geometry">
            <mxPoint as="offset" />
          </mxGeometry>
        </mxCell>
        <mxCell id="_UXQPpMFnyoWNoIL0Hmv-131" value="" style="endArrow=block;dashed=1;html=1;rounded=0;endFill=1;" parent="1" source="_UXQPpMFnyoWNoIL0Hmv-118" target="_UXQPpMFnyoWNoIL0Hmv-116" edge="1">
          <mxGeometry width="50" height="50" relative="1" as="geometry">
            <mxPoint x="1923" y="1352" as="sourcePoint" />
            <mxPoint x="1973" y="1302" as="targetPoint" />
          </mxGeometry>
        </mxCell>
        <mxCell id="_UXQPpMFnyoWNoIL0Hmv-132" value="&amp;lt;&amp;lt; include &amp;gt;&amp;gt;" style="edgeLabel;html=1;align=center;verticalAlign=middle;resizable=0;points=[];" parent="_UXQPpMFnyoWNoIL0Hmv-131" vertex="1" connectable="0">
          <mxGeometry x="-0.181" y="1" relative="1" as="geometry">
            <mxPoint as="offset" />
          </mxGeometry>
        </mxCell>
        <mxCell id="_UXQPpMFnyoWNoIL0Hmv-133" value="" style="endArrow=block;dashed=1;html=1;rounded=0;exitX=1;exitY=0;exitDx=0;exitDy=0;entryX=0.158;entryY=0.95;entryDx=0;entryDy=0;entryPerimeter=0;endFill=1;" parent="1" source="_UXQPpMFnyoWNoIL0Hmv-68" target="_UXQPpMFnyoWNoIL0Hmv-66" edge="1">
          <mxGeometry width="50" height="50" relative="1" as="geometry">
            <mxPoint x="293" y="1392" as="sourcePoint" />
            <mxPoint x="343" y="1342" as="targetPoint" />
          </mxGeometry>
        </mxCell>
        <mxCell id="_UXQPpMFnyoWNoIL0Hmv-134" value="" style="endArrow=block;dashed=1;html=1;rounded=0;exitX=0.5;exitY=0;exitDx=0;exitDy=0;endFill=1;" parent="1" source="_UXQPpMFnyoWNoIL0Hmv-70" target="_UXQPpMFnyoWNoIL0Hmv-66" edge="1">
          <mxGeometry width="50" height="50" relative="1" as="geometry">
            <mxPoint x="293" y="1392" as="sourcePoint" />
            <mxPoint x="343" y="1342" as="targetPoint" />
          </mxGeometry>
        </mxCell>
        <mxCell id="_UXQPpMFnyoWNoIL0Hmv-145" style="edgeStyle=orthogonalEdgeStyle;rounded=0;orthogonalLoop=1;jettySize=auto;html=1;entryX=0.003;entryY=0.575;entryDx=0;entryDy=0;entryPerimeter=0;" parent="1" source="_UXQPpMFnyoWNoIL0Hmv-33" target="_UXQPpMFnyoWNoIL0Hmv-20" edge="1">
          <mxGeometry relative="1" as="geometry">
            <mxPoint x="300" y="352" as="targetPoint" />
            <Array as="points">
              <mxPoint x="260" y="353" />
              <mxPoint x="260" y="353" />
            </Array>
          </mxGeometry>
        </mxCell>
        <mxCell id="_UXQPpMFnyoWNoIL0Hmv-151" style="edgeStyle=orthogonalEdgeStyle;rounded=0;orthogonalLoop=1;jettySize=auto;html=1;entryX=0;entryY=0.455;entryDx=0;entryDy=0;entryPerimeter=0;" parent="1" source="_UXQPpMFnyoWNoIL0Hmv-20" target="_UXQPpMFnyoWNoIL0Hmv-26" edge="1">
          <mxGeometry relative="1" as="geometry">
            <Array as="points">
              <mxPoint x="750" y="314" />
              <mxPoint x="750" y="300" />
            </Array>
          </mxGeometry>
        </mxCell>
        <mxCell id="_UXQPpMFnyoWNoIL0Hmv-154" style="edgeStyle=orthogonalEdgeStyle;rounded=0;orthogonalLoop=1;jettySize=auto;html=1;entryX=0.005;entryY=0.527;entryDx=0;entryDy=0;entryPerimeter=0;" parent="1" source="_UXQPpMFnyoWNoIL0Hmv-26" target="_UXQPpMFnyoWNoIL0Hmv-46" edge="1">
          <mxGeometry relative="1" as="geometry" />
        </mxCell>
        <mxCell id="_UXQPpMFnyoWNoIL0Hmv-155" style="edgeStyle=orthogonalEdgeStyle;rounded=0;orthogonalLoop=1;jettySize=auto;html=1;entryX=1;entryY=0.306;entryDx=0;entryDy=0;entryPerimeter=0;" parent="1" source="_UXQPpMFnyoWNoIL0Hmv-53" target="_UXQPpMFnyoWNoIL0Hmv-46" edge="1">
          <mxGeometry relative="1" as="geometry" />
        </mxCell>
        <mxCell id="_UXQPpMFnyoWNoIL0Hmv-156" value="ROLE_AMIN&amp;nbsp; &amp;nbsp;( Administrateur)&amp;nbsp;" style="swimlane;fontStyle=0;childLayout=stackLayout;horizontal=1;startSize=30;horizontalStack=0;resizeParent=1;resizeParentMax=0;resizeLast=0;collapsible=1;marginBottom=0;whiteSpace=wrap;html=1;" parent="1" vertex="1">
          <mxGeometry x="521" y="1860" width="1009" height="1220" as="geometry" />
        </mxCell>
        <mxCell id="_UXQPpMFnyoWNoIL0Hmv-157" value="Log in" style="ellipse;whiteSpace=wrap;html=1;" parent="1" vertex="1">
          <mxGeometry x="715" y="1923" width="120" height="80" as="geometry" />
        </mxCell>
        <mxCell id="_UXQPpMFnyoWNoIL0Hmv-158" value="Admin" style="shape=umlActor;verticalLabelPosition=bottom;verticalAlign=top;html=1;outlineConnect=0;" parent="1" vertex="1">
          <mxGeometry x="367" y="2189" width="30" height="60" as="geometry" />
        </mxCell>
        <mxCell id="_UXQPpMFnyoWNoIL0Hmv-159" value="BDD" style="shape=umlActor;verticalLabelPosition=bottom;verticalAlign=top;html=1;outlineConnect=0;" parent="1" vertex="1">
          <mxGeometry x="1587" y="1969" width="30" height="57" as="geometry" />
        </mxCell>
        <mxCell id="_UXQPpMFnyoWNoIL0Hmv-160" value="" style="endArrow=none;html=1;rounded=0;" parent="1" target="_UXQPpMFnyoWNoIL0Hmv-157" edge="1">
          <mxGeometry width="50" height="50" relative="1" as="geometry">
            <mxPoint x="407" y="2203" as="sourcePoint" />
            <mxPoint x="437" y="2302" as="targetPoint" />
          </mxGeometry>
        </mxCell>
        <mxCell id="_UXQPpMFnyoWNoIL0Hmv-164" value="PROSPECT" style="ellipse;whiteSpace=wrap;html=1;" parent="1" vertex="1">
          <mxGeometry x="862" y="2519" width="145" height="88" as="geometry" />
        </mxCell>
        <mxCell id="_UXQPpMFnyoWNoIL0Hmv-165" value="suprimer interaction" style="ellipse;whiteSpace=wrap;html=1;" parent="1" vertex="1">
          <mxGeometry x="690" y="2648" width="120" height="80" as="geometry" />
        </mxCell>
        <mxCell id="_UXQPpMFnyoWNoIL0Hmv-168" value="Suprimer prospect" style="ellipse;whiteSpace=wrap;html=1;" parent="1" vertex="1">
          <mxGeometry x="851" y="2690" width="120" height="80" as="geometry" />
        </mxCell>
        <mxCell id="_UXQPpMFnyoWNoIL0Hmv-169" value="" style="ellipse;whiteSpace=wrap;html=1;" parent="1" vertex="1">
          <mxGeometry x="1011" y="2648" width="120" height="80" as="geometry" />
        </mxCell>
        <mxCell id="_UXQPpMFnyoWNoIL0Hmv-170" value="" style="endArrow=block;dashed=1;html=1;rounded=0;entryX=0.448;entryY=0.983;entryDx=0;entryDy=0;endFill=1;entryPerimeter=0;" parent="1" target="_UXQPpMFnyoWNoIL0Hmv-164" edge="1">
          <mxGeometry width="50" height="50" relative="1" as="geometry">
            <mxPoint x="914" y="2690" as="sourcePoint" />
            <mxPoint x="942" y="2679" as="targetPoint" />
          </mxGeometry>
        </mxCell>
        <mxCell id="_UXQPpMFnyoWNoIL0Hmv-171" value="&amp;lt;&amp;lt; include &amp;gt;&amp;gt;" style="edgeLabel;html=1;align=center;verticalAlign=middle;resizable=0;points=[];" parent="_UXQPpMFnyoWNoIL0Hmv-170" vertex="1" connectable="0">
          <mxGeometry x="-0.0718" relative="1" as="geometry">
            <mxPoint as="offset" />
          </mxGeometry>
        </mxCell>
        <mxCell id="_UXQPpMFnyoWNoIL0Hmv-172" value="" style="endArrow=block;dashed=1;html=1;rounded=0;exitX=0.698;exitY=0.052;exitDx=0;exitDy=0;exitPerimeter=0;endFill=1;" parent="1" source="_UXQPpMFnyoWNoIL0Hmv-165" target="_UXQPpMFnyoWNoIL0Hmv-164" edge="1">
          <mxGeometry width="50" height="50" relative="1" as="geometry">
            <mxPoint x="892" y="2729" as="sourcePoint" />
            <mxPoint x="942" y="2679" as="targetPoint" />
          </mxGeometry>
        </mxCell>
        <mxCell id="_UXQPpMFnyoWNoIL0Hmv-173" value="&amp;lt;&amp;lt; include &amp;gt;&amp;gt;" style="edgeLabel;html=1;align=center;verticalAlign=middle;resizable=0;points=[];" parent="_UXQPpMFnyoWNoIL0Hmv-172" vertex="1" connectable="0">
          <mxGeometry x="-0.2907" relative="1" as="geometry">
            <mxPoint as="offset" />
          </mxGeometry>
        </mxCell>
        <mxCell id="_UXQPpMFnyoWNoIL0Hmv-174" value="" style="endArrow=block;dashed=1;html=1;rounded=0;entryX=1;entryY=1;entryDx=0;entryDy=0;exitX=0.323;exitY=0.005;exitDx=0;exitDy=0;exitPerimeter=0;endFill=1;" parent="1" target="_UXQPpMFnyoWNoIL0Hmv-164" edge="1">
          <mxGeometry width="50" height="50" relative="1" as="geometry">
            <mxPoint x="1049.7600000000002" y="2647.4" as="sourcePoint" />
            <mxPoint x="942" y="2679" as="targetPoint" />
          </mxGeometry>
        </mxCell>
        <mxCell id="_UXQPpMFnyoWNoIL0Hmv-175" value="&amp;lt;&amp;lt; include &amp;gt;&amp;gt;" style="edgeLabel;html=1;align=center;verticalAlign=middle;resizable=0;points=[];" parent="_UXQPpMFnyoWNoIL0Hmv-174" vertex="1" connectable="0">
          <mxGeometry x="-0.1339" y="1" relative="1" as="geometry">
            <mxPoint as="offset" />
          </mxGeometry>
        </mxCell>
        <mxCell id="_UXQPpMFnyoWNoIL0Hmv-180" value="OFFRE" style="ellipse;whiteSpace=wrap;html=1;" parent="1" vertex="1">
          <mxGeometry x="1167" y="2341" width="192" height="92" as="geometry" />
        </mxCell>
        <mxCell id="_UXQPpMFnyoWNoIL0Hmv-181" value="créer une offre" style="ellipse;whiteSpace=wrap;html=1;" parent="1" vertex="1">
          <mxGeometry x="1104" y="2497" width="120" height="80" as="geometry" />
        </mxCell>
        <mxCell id="_UXQPpMFnyoWNoIL0Hmv-182" value="modifier une offre" style="ellipse;whiteSpace=wrap;html=1;" parent="1" vertex="1">
          <mxGeometry x="1311" y="2484" width="120" height="75" as="geometry" />
        </mxCell>
        <mxCell id="_UXQPpMFnyoWNoIL0Hmv-193" value="" style="endArrow=block;dashed=1;html=1;rounded=0;exitX=0.702;exitY=0.063;exitDx=0;exitDy=0;exitPerimeter=0;entryX=0.374;entryY=1.057;entryDx=0;entryDy=0;entryPerimeter=0;endFill=1;" parent="1" source="_UXQPpMFnyoWNoIL0Hmv-181" target="_UXQPpMFnyoWNoIL0Hmv-180" edge="1">
          <mxGeometry width="50" height="50" relative="1" as="geometry">
            <mxPoint x="1276" y="2484" as="sourcePoint" />
            <mxPoint x="1326" y="2434" as="targetPoint" />
          </mxGeometry>
        </mxCell>
        <mxCell id="_UXQPpMFnyoWNoIL0Hmv-194" value="&amp;lt;&amp;lt; include &amp;gt;&amp;gt;" style="edgeLabel;html=1;align=center;verticalAlign=middle;resizable=0;points=[];" parent="_UXQPpMFnyoWNoIL0Hmv-193" vertex="1" connectable="0">
          <mxGeometry x="-0.0916" relative="1" as="geometry">
            <mxPoint as="offset" />
          </mxGeometry>
        </mxCell>
        <mxCell id="_UXQPpMFnyoWNoIL0Hmv-195" value="" style="endArrow=block;dashed=1;html=1;rounded=0;endFill=1;" parent="1" source="_UXQPpMFnyoWNoIL0Hmv-182" target="_UXQPpMFnyoWNoIL0Hmv-180" edge="1">
          <mxGeometry width="50" height="50" relative="1" as="geometry">
            <mxPoint x="1276" y="2484" as="sourcePoint" />
            <mxPoint x="1326" y="2434" as="targetPoint" />
          </mxGeometry>
        </mxCell>
        <mxCell id="_UXQPpMFnyoWNoIL0Hmv-196" value="&amp;lt;&amp;lt; include &amp;gt;&amp;gt;" style="edgeLabel;html=1;align=center;verticalAlign=middle;resizable=0;points=[];" parent="_UXQPpMFnyoWNoIL0Hmv-195" vertex="1" connectable="0">
          <mxGeometry x="-0.181" y="1" relative="1" as="geometry">
            <mxPoint as="offset" />
          </mxGeometry>
        </mxCell>
        <mxCell id="_UXQPpMFnyoWNoIL0Hmv-204" value="" style="endArrow=none;html=1;rounded=0;" parent="1" edge="1">
          <mxGeometry width="50" height="50" relative="1" as="geometry">
            <mxPoint x="800" y="1400" as="sourcePoint" />
            <mxPoint x="800" y="1080" as="targetPoint" />
          </mxGeometry>
        </mxCell>
        <mxCell id="_UXQPpMFnyoWNoIL0Hmv-207" value="authentification" style="ellipse;whiteSpace=wrap;html=1;" parent="1" vertex="1">
          <mxGeometry x="1202" y="1003" width="120" height="80" as="geometry" />
        </mxCell>
        <mxCell id="_UXQPpMFnyoWNoIL0Hmv-209" value="authentification" style="ellipse;whiteSpace=wrap;html=1;" parent="1" vertex="1">
          <mxGeometry x="521" y="2035" width="120" height="80" as="geometry" />
        </mxCell>
        <mxCell id="_UXQPpMFnyoWNoIL0Hmv-213" style="edgeStyle=orthogonalEdgeStyle;rounded=0;orthogonalLoop=1;jettySize=auto;html=1;exitX=1;exitY=0.5;exitDx=0;exitDy=0;" parent="1" source="_UXQPpMFnyoWNoIL0Hmv-211" edge="1">
          <mxGeometry relative="1" as="geometry">
            <mxPoint x="1580" y="1990" as="targetPoint" />
          </mxGeometry>
        </mxCell>
        <mxCell id="_UXQPpMFnyoWNoIL0Hmv-211" value="Tous les droits d&#39;un MA" style="ellipse;whiteSpace=wrap;html=1;" parent="1" vertex="1">
          <mxGeometry x="917" y="1922" width="120" height="80" as="geometry" />
        </mxCell>
        <mxCell id="_UXQPpMFnyoWNoIL0Hmv-217" value="" style="endArrow=none;html=1;rounded=0;exitX=1;exitY=0.5;exitDx=0;exitDy=0;entryX=0;entryY=0.5;entryDx=0;entryDy=0;" parent="1" source="_UXQPpMFnyoWNoIL0Hmv-157" target="_UXQPpMFnyoWNoIL0Hmv-211" edge="1">
          <mxGeometry width="50" height="50" relative="1" as="geometry">
            <mxPoint x="1020" y="2130" as="sourcePoint" />
            <mxPoint x="1070" y="2080" as="targetPoint" />
          </mxGeometry>
        </mxCell>
        <mxCell id="_UXQPpMFnyoWNoIL0Hmv-221" style="edgeStyle=orthogonalEdgeStyle;rounded=0;orthogonalLoop=1;jettySize=auto;html=1;entryX=0;entryY=0.5;entryDx=0;entryDy=0;" parent="1" source="_UXQPpMFnyoWNoIL0Hmv-218" target="_UXQPpMFnyoWNoIL0Hmv-180" edge="1">
          <mxGeometry relative="1" as="geometry">
            <Array as="points">
              <mxPoint x="948" y="2442" />
              <mxPoint x="948" y="2387" />
            </Array>
          </mxGeometry>
        </mxCell>
        <mxCell id="_UXQPpMFnyoWNoIL0Hmv-222" style="edgeStyle=orthogonalEdgeStyle;rounded=0;orthogonalLoop=1;jettySize=auto;html=1;entryX=0;entryY=0.5;entryDx=0;entryDy=0;" parent="1" source="_UXQPpMFnyoWNoIL0Hmv-218" target="_UXQPpMFnyoWNoIL0Hmv-164" edge="1">
          <mxGeometry relative="1" as="geometry">
            <Array as="points">
              <mxPoint x="796" y="2532" />
              <mxPoint x="796" y="2563" />
            </Array>
          </mxGeometry>
        </mxCell>
        <mxCell id="_UXQPpMFnyoWNoIL0Hmv-218" value="Master Control" style="whiteSpace=wrap;html=1;aspect=fixed;" parent="1" vertex="1">
          <mxGeometry x="559" y="2412" width="170" height="170" as="geometry" />
        </mxCell>
        <mxCell id="_UXQPpMFnyoWNoIL0Hmv-219" style="edgeStyle=orthogonalEdgeStyle;rounded=0;orthogonalLoop=1;jettySize=auto;html=1;entryX=0.027;entryY=0.353;entryDx=0;entryDy=0;entryPerimeter=0;" parent="1" source="_UXQPpMFnyoWNoIL0Hmv-158" target="_UXQPpMFnyoWNoIL0Hmv-218" edge="1">
          <mxGeometry relative="1" as="geometry">
            <Array as="points">
              <mxPoint x="540" y="2219" />
              <mxPoint x="540" y="2472" />
            </Array>
          </mxGeometry>
        </mxCell>
        <mxCell id="_UXQPpMFnyoWNoIL0Hmv-225" value="DEMANDE" style="ellipse;whiteSpace=wrap;html=1;" parent="1" vertex="1">
          <mxGeometry x="923" y="2051" width="120" height="80" as="geometry" />
        </mxCell>
        <mxCell id="_UXQPpMFnyoWNoIL0Hmv-226" value="emettre une demande" style="ellipse;whiteSpace=wrap;html=1;" parent="1" vertex="1">
          <mxGeometry x="837" y="2165" width="120" height="80" as="geometry" />
        </mxCell>
        <mxCell id="_UXQPpMFnyoWNoIL0Hmv-227" value="emettre une facture" style="ellipse;whiteSpace=wrap;html=1;" parent="1" vertex="1">
          <mxGeometry x="1047" y="2160" width="120" height="80" as="geometry" />
        </mxCell>
        <mxCell id="_UXQPpMFnyoWNoIL0Hmv-230" value="" style="endArrow=classic;html=1;rounded=0;entryX=0;entryY=0.5;entryDx=0;entryDy=0;" parent="1" target="_UXQPpMFnyoWNoIL0Hmv-225" edge="1">
          <mxGeometry width="50" height="50" relative="1" as="geometry">
            <mxPoint x="400" y="2210" as="sourcePoint" />
            <mxPoint x="1070" y="2260" as="targetPoint" />
          </mxGeometry>
        </mxCell>
        <mxCell id="_UXQPpMFnyoWNoIL0Hmv-233" value="" style="endArrow=classic;html=1;rounded=0;exitX=0.755;exitY=1.001;exitDx=0;exitDy=0;exitPerimeter=0;entryX=0;entryY=0;entryDx=0;entryDy=0;" parent="1" source="_UXQPpMFnyoWNoIL0Hmv-225" target="_UXQPpMFnyoWNoIL0Hmv-227" edge="1">
          <mxGeometry width="50" height="50" relative="1" as="geometry">
            <mxPoint x="1020" y="2310" as="sourcePoint" />
            <mxPoint x="1070" y="2260" as="targetPoint" />
          </mxGeometry>
        </mxCell>
        <mxCell id="_UXQPpMFnyoWNoIL0Hmv-234" value="" style="endArrow=classic;html=1;rounded=0;exitX=0.31;exitY=0.974;exitDx=0;exitDy=0;exitPerimeter=0;entryX=0.694;entryY=0.007;entryDx=0;entryDy=0;entryPerimeter=0;" parent="1" source="_UXQPpMFnyoWNoIL0Hmv-225" target="_UXQPpMFnyoWNoIL0Hmv-226" edge="1">
          <mxGeometry width="50" height="50" relative="1" as="geometry">
            <mxPoint x="1020" y="2310" as="sourcePoint" />
            <mxPoint x="930" y="2160" as="targetPoint" />
          </mxGeometry>
        </mxCell>
        <mxCell id="_UXQPpMFnyoWNoIL0Hmv-236" value="" style="endArrow=classic;html=1;rounded=0;exitX=0.977;exitY=0.362;exitDx=0;exitDy=0;exitPerimeter=0;" parent="1" source="_UXQPpMFnyoWNoIL0Hmv-225" edge="1">
          <mxGeometry width="50" height="50" relative="1" as="geometry">
            <mxPoint x="1020" y="2310" as="sourcePoint" />
            <mxPoint x="1580" y="2010" as="targetPoint" />
          </mxGeometry>
        </mxCell>
        <mxCell id="_UXQPpMFnyoWNoIL0Hmv-237" value="" style="endArrow=classic;html=1;rounded=0;exitX=0.96;exitY=0.243;exitDx=0;exitDy=0;exitPerimeter=0;" parent="1" source="_UXQPpMFnyoWNoIL0Hmv-180" edge="1">
          <mxGeometry width="50" height="50" relative="1" as="geometry">
            <mxPoint x="1020" y="2310" as="sourcePoint" />
            <mxPoint x="1570" y="2020" as="targetPoint" />
          </mxGeometry>
        </mxCell>
      </root>
    </mxGraphModel>
  </diagram>
</mxfile>
